<svg xmlns="http://www.w3.org/2000/svg" width="512" height="512" viewBox="0 0 512 512" role="img" aria-labelledby="title desc">
  <title id="title">MiMo TTS Voice Clone Icon</title>
  <desc id="desc">Warm amber voice clone icon with waveform, microphone capsule, and orbit ring.</desc>
  <defs>
    <radialGradient id="bgGlow" cx="30%" cy="18%" r="78%">
      <stop offset="0" stop-color="#fff3bd"/>
      <stop offset="0.45" stop-color="#f6b548"/>
      <stop offset="1" stop-color="#7b3d18"/>
    </radialGradient>
    <linearGradient id="card" x1="80" y1="74" x2="430" y2="440" gradientUnits="userSpaceOnUse">
      <stop offset="0" stop-color="#fff9ea"/>
      <stop offset="0.55" stop-color="#ffd978"/>
      <stop offset="1" stop-color="#e97f2a"/>
    </linearGradient>
    <linearGradient id="ink" x1="146" y1="148" x2="370" y2="356" gradientUnits="userSpaceOnUse">
      <stop offset="0" stop-color="#3a210e"/>
      <stop offset="1" stop-color="#1f1308"/>
    </linearGradient>
    <filter id="shadow" x="-20%" y="-20%" width="140%" height="140%">
      <feDropShadow dx="0" dy="24" stdDeviation="22" flood-color="#4f2b10" flood-opacity="0.28"/>
    </filter>
  </defs>
  <rect width="512" height="512" rx="116" fill="url(#bgGlow)"/>
  <path d="M92 318c25 72 93 122 171 119 91-4 164-80 160-171-3-83-69-151-151-159-87-9-166 50-185 135" fill="none" stroke="#fff4ce" stroke-width="20" stroke-linecap="round" opacity=".72"/>
  <g filter="url(#shadow)">
    <rect x="105" y="104" width="302" height="302" rx="82" fill="url(#card)"/>
  </g>
  <path d="M256 151c47 0 85 38 85 85v40c0 47-38 85-85 85s-85-38-85-85v-40c0-47 38-85 85-85Z" fill="url(#ink)"/>
  <path d="M221 236c0-19 16-35 35-35s35 16 35 35v40c0 19-16 35-35 35s-35-16-35-35v-40Z" fill="#fff1c3"/>
  <path d="M151 264h-26M387 264h-26" stroke="#3a210e" stroke-width="18" stroke-linecap="round"/>
  <path d="M143 214c21-51 67-82 113-82s92 31 113 82" fill="none" stroke="#3a210e" stroke-width="14" stroke-linecap="round" opacity=".9"/>
  <path d="M145 319c21 48 67 77 111 77s90-29 111-77" fill="none" stroke="#3a210e" stroke-width="14" stroke-linecap="round" opacity=".9"/>
  <path d="M198 356c-10 28-31 45-58 51M314 356c10 28 31 45 58 51" stroke="#fff4ce" stroke-width="14" stroke-linecap="round" opacity=".9"/>
  <g stroke="#fff4ce" stroke-width="14" stroke-linecap="round">
    <path d="M154 256v-21"/>
    <path d="M181 256v-50"/>
    <path d="M208 256v-30"/>
    <path d="M304 256v-30"/>
    <path d="M331 256v-50"/>
    <path d="M358 256v-21"/>
  </g>
</svg>
