<svg xmlns="http://www.w3.org/2000/svg" width="1280" height="520" viewBox="0 0 1280 520" role="img" aria-labelledby="title desc">
  <title id="title">Voice Hub README Hero</title>
  <desc id="desc">Warm dashboard illustration for AstrBot Voice Hub dual TTS backend plugin.</desc>
  <defs>
    <radialGradient id="glow" cx="18%" cy="8%" r="86%">
      <stop offset="0" stop-color="#fff2bd"/>
      <stop offset=".48" stop-color="#f4b043"/>
      <stop offset="1" stop-color="#7a3c18"/>
    </radialGradient>
    <linearGradient id="panel" x1="120" y1="80" x2="1110" y2="455">
      <stop offset="0" stop-color="#fff9eb"/>
      <stop offset=".58" stop-color="#f5d592"/>
      <stop offset="1" stop-color="#2a190c"/>
    </linearGradient>
    <filter id="shadow" x="-20%" y="-20%" width="140%" height="140%">
      <feDropShadow dx="0" dy="28" stdDeviation="28" flood-color="#3f240f" flood-opacity=".25"/>
    </filter>
  </defs>
  <rect width="1280" height="520" rx="44" fill="url(#glow)"/>
  <path d="M0 420c164-80 266-37 407-74 151-39 191-153 354-158 169-5 222 111 519 10v322H0Z" fill="#fff7e4" opacity=".24"/>
  <rect x="76" y="68" width="1128" height="384" rx="44" fill="url(#panel)" filter="url(#shadow)"/>
  <g transform="translate(124 110)">
    <text x="0" y="0" fill="#80510f" font-family="Arial, sans-serif" font-size="22" font-weight="800" letter-spacing="3">ASTRBOT PLUGIN</text>
    <text x="0" y="72" fill="#24180d" font-family="Arial, sans-serif" font-size="68" font-weight="900">Voice Hub</text>
    <text x="0" y="118" fill="#6f5838" font-family="Arial, sans-serif" font-size="25">Dual TTS backend: MiMo voiceclone + AstrBot built-in TTS, Pages UI.</text>
    <g transform="translate(0 172)">
      <rect width="170" height="46" rx="23" fill="#24180d"/>
      <text x="85" y="31" text-anchor="middle" fill="#ffd376" font-family="Arial, sans-serif" font-size="18" font-weight="800">Voice Clone</text>
      <rect x="190" width="178" height="46" rx="23" fill="#fff0c8" opacity=".9"/>
      <text x="279" y="31" text-anchor="middle" fill="#80510f" font-family="Arial, sans-serif" font-size="18" font-weight="800">Emotion Route</text>
      <rect x="388" width="158" height="46" rx="23" fill="#fff0c8" opacity=".9"/>
      <text x="467" y="31" text-anchor="middle" fill="#80510f" font-family="Arial, sans-serif" font-size="18" font-weight="800">Auto TTS</text>
    </g>
  </g>
  <g transform="translate(795 104)">
    <rect width="330" height="294" rx="36" fill="#2a190c" opacity=".94"/>
    <rect x="28" y="28" width="274" height="54" rx="18" fill="#fff1c3" opacity=".12"/>
    <circle cx="60" cy="55" r="12" fill="#ffc84b"/>
    <rect x="88" y="43" width="168" height="10" rx="5" fill="#fff1c3" opacity=".8"/>
    <rect x="88" y="61" width="116" height="8" rx="4" fill="#fff1c3" opacity=".38"/>
    <g transform="translate(42 122)" stroke="#ffd376" stroke-width="13" stroke-linecap="round">
      <path d="M0 60v-24"/>
      <path d="M35 60V8"/>
      <path d="M70 60V28"/>
      <path d="M105 60V0"/>
      <path d="M140 60V22"/>
      <path d="M175 60V12"/>
      <path d="M210 60V40"/>
      <path d="M245 60V18"/>
    </g>
    <rect x="38" y="224" width="120" height="38" rx="19" fill="#ffc84b"/>
    <rect x="176" y="224" width="96" height="38" rx="19" fill="#fff1c3" opacity=".16"/>
  </g>
</svg>
